# Made in Blockbench 4.3.1
mtllib test.mtl

o cube
v 0.5 0.5 0.5
v 0.5 0.5 -0.5
v 0.5 0 0.5
v 0.5 0 -0.5
v -0.5 0.5 -0.5
v -0.5 0.5 0.5
v -0.5 0 -0.5
v -0.5 0 0.5
vt 0.125 1
vt 0.875 1
vt 0.875 0
vt 0.125 0
vt 0.125 1
vt 0.875 1
vt 0.875 0
vt 0.125 0
vt 0.125 1
vt 0.875 1
vt 0.875 0
vt 0.125 0
vt 0.125 1
vt 0.875 1
vt 0.875 0
vt 0.125 0
vt 0 1
vt 1 1
vt 1 0
vt 0 0
vt 0 1
vt 1 1
vt 1 0
vt 0 0
vn 0 0 -1
vn 1 0 0
vn 0 0 1
vn -1 0 0
vn 0 1 0
vn 0 -1 0
usemtl m_1
f 4/4/1 7/3/1 5/2/1 2/1/1
f 3/8/2 4/7/2 2/6/2 1/5/2
f 8/12/3 3/11/3 1/10/3 6/9/3
f 7/16/4 8/15/4 6/14/4 5/13/4
usemtl none
f 6/20/5 1/19/5 2/18/5 5/17/5
f 7/24/6 4/23/6 3/22/6 8/21/6
o cube
v 0.5 1.125 0.5
v 0.5 1.125 -0.5
v 0.5 0.625 0.5
v 0.5 0.625 -0.5
v -0.5 1.625 0.5
v -0.5 1.625 -0.5
v -0.5 0.625 0.5
v -0.5 0.625 -0.5
v -0.5 1.25 -0.5
v -0.5 1.25 0.5
vt 1 0.5
vt 0 0.5
vt 0 0
vt 1 0
vt 0 0
vt 1 0
vt 1 1
vt 0 1
vt 1 0
vt 1 1
vt 0 1
vt 0 0
vt 1 0
vt 1 0.5
vt 0 1
vt 0 0
vt 1 0
vt 1 1
vt 0 1
vt 0 0
vn 1 0 0
vn 0.44721359549995804 0.8944271909999161 0
vn 0 -1 0
vn 0 0 1
vn -1 0 0
usemtl m_0
f 10/25/7 9/26/7 11/27/7 12/28/7
f 13/29/8 9/30/8 10/31/8 14/32/8
f 12/33/9 11/34/9 15/35/9 16/36/9
f 11/37/10 9/38/10 13/39/10 15/40/10
f 15/41/11 13/42/11 14/43/11 16/44/11